PathFileType	4	(X/Y/Z)	55_1_39_p0_0-225.trc
DataRate	CameraRate	NumFrames	NumMarkers	Units	OrigDataRate	OrigDataStartFrame	OrigNumFrames
41.0	41.0	6	27	m	41.0	0	226
Frame#	Time	RHip			RKnee			RAnkle			RBigToe			RSmallToe			RHeel			LHip			LKnee			LAnkle			LBigToe			LSmallToe			LHeel			Neck			Head			Nose			RShoulder			RElbow			RWrist			RThumb			RIndex			RPinky			LShoulder			LElbow			LWrist			LThumb			LIndex			LPinky			
		X1	Y1	Z1	X2	Y2	Z2	X3	Y3	Z3	X4	Y4	Z4	X5	Y5	Z5	X6	Y6	Z6	X7	Y7	Z7	X8	Y8	Z8	X9	Y9	Z9	X10	Y10	Z10	X11	Y11	Z11	X12	Y12	Z12	X13	Y13	Z13	X14	Y14	Z14	X15	Y15	Z15	X16	Y16	Z16	X17	Y17	Z17	X18	Y18	Z18	X19	Y19	Z19	X20	Y20	Z20	X21	Y21	Z21	X22	Y22	Z22	X23	Y23	Z23	X24	Y24	Z24	X25	Y25	Z25	X26	Y26	Z26	X27	Y27	Z27	
0	0.0	0.33294136362725407	0.6062715352551106	0.7897641475644295	0.32717800351748016	0.6057779514844808	1.199153676385253	0.32034732313488806	0.6313629461423865	1.6249762926641478	0.2888497225805391	0.4307388076506904	1.6376500977960788	0.35760950414658677	0.4502657583615496	1.6485552464584994	0.30629735544965464	0.6949823684847679	1.6932725442630683	0.1158225817370759	0.6136290646329112	0.7872940314306528	0.12817210478262725	0.6274032070319391	1.2033585111110197	0.13255865397396946	0.6173973608052765	1.582747468593792	0.11012758459909362	0.42264678475157874	1.6293795400923035	0.0691177262675528	0.4687219570686728	1.6471595985577885	0.14923873565178447	0.6790904997198985	1.664756351999445	0.21634545399516794	0.6115131027040038	0.21392313327585702	0.22743660171080246	0.5575162623810221	-0.04623680610790512	0.2148229031089646	0.4825757218869576	0.07589962092143598	0.3638550126830548	0.5753915247752688	0.2953903651194593	0.3975093913099793	0.5369940560029274	0.5643672648070844	0.283629856842729	0.4026159327409625	0.7251448746541276	0.18155661315609053	0.41302367530004386	0.796418254877174	0.1791390133986328	0.42425011221331127	0.8162778174237035	0.2073727245655311	0.4145702015252148	0.8353243330838145	0.07226671213711157	0.6267792986073902	0.30370844960762894	0.050990923096206314	0.5361464378393122	0.5309870876057933	0.15709115509431615	0.4090014540805095	0.7056185459277717	0.19638788817279404	0.4100207841085504	0.7955717076192779	0.20044105341741286	0.39635238143314167	0.8067194203188345	0.1977359876183888	0.40109967274636454	0.8084659744864355
1	0.024390243902439025	0.33222574315349623	0.6053243457756656	0.7853841835069328	0.32573769028584504	0.5896787026759255	1.190776814807481	0.3204436868936942	0.631324775481042	1.6248334690097646	0.2899541840741792	0.4309664772422716	1.6326127219364706	0.35265884059434643	0.44041922803017874	1.636520363577618	0.3073466581307124	0.6949882317148417	1.687660962928608	0.12009658423825335	0.6160690629548349	0.7879492272988013	0.12374867285862653	0.6252645636439819	1.20232284263135	0.13255167972059398	0.6173415359459847	1.5828183785702838	0.11116478946908975	0.4222271945415214	1.6250439770922074	0.0688147562036163	0.4705432846648283	1.6438939638606216	0.14939591104990665	0.679443919886713	1.665356894856703	0.21636483398462955	0.6113719400725852	0.2138907717473995	0.22740431782979942	0.5577175925729103	-0.04617655991899436	0.21495978970604887	0.4821884033124905	0.0791358668496816	0.36378946045249133	0.5753227409051241	0.29532165541376487	0.4021172758934556	0.5481655755989415	0.5675921831115935	0.28795504519796367	0.4156314393703221	0.7221440937242162	0.17905666178658902	0.42774383557490797	0.8018507386616518	0.17917929489412404	0.42616315695777773	0.8058808021860383	0.2077229928635821	0.4147602433080255	0.8348832973773009	0.07617772453798537	0.6140203773284846	0.29757784450414226	0.04714479956473614	0.5481836306802844	0.5379198678032775	0.1658734089591609	0.4219927259724	0.7063908595147574	0.19779463438481093	0.4112712941699066	0.7958658594619968	0.2042589416115371	0.398086359688975	0.8034647280773798	0.19768303935603423	0.40204860285744465	0.8004938946372714
2	0.04878048780487805	0.3327413457185681	0.605612596008767	0.7812186392857896	0.32265004205716263	0.6041522727829822	1.1983623782299315	0.32008435377709127	0.6330417086031602	1.6210690891363786	0.28533353132998346	0.4194195297432185	1.6250071996967046	0.35090354716848327	0.4564494069539865	1.6521786545015815	0.30914838113741844	0.696935034004563	1.6941440931621765	0.12410953666453234	0.6279888079634681	0.7920843265112922	0.12812295169776358	0.6271687359395739	1.2032878622723482	0.13262979100261174	0.6175192333759183	1.5825885927783152	0.11105382236395141	0.42267588790217553	1.6251935682254763	0.0656372344277718	0.4838947631938717	1.6485055254923597	0.14835875501049348	0.6798780737203338	1.671339741673831	0.21634482138329256	0.6113534133537389	0.21396268626398812	0.22750122447744298	0.5573004914190417	-0.042723188247303104	0.2149307055136871	0.48217775364860743	0.07920798471784113	0.363812404805592	0.5754078396570947	0.29531310293991403	0.4062340986495002	0.5585745954617256	0.5672835635855421	0.2852090911803025	0.42922534464916157	0.7269797634305004	0.17566797699353595	0.4422889453842646	0.8071250429451094	0.17924807112360455	0.4269596423915168	0.8060740412919305	0.20783496868551057	0.4146528950914061	0.8347590545164265	0.0762615241976206	0.6139048888206106	0.2973969372132885	0.04748598589307953	0.549186195083035	0.5345843327511962	0.16275529797359384	0.43566406081970566	0.7110874269788268	0.19764021569559362	0.41279643105250463	0.7959563765707884	0.20106812198574692	0.41113514555115105	0.8081573809397558	0.20126574988305582	0.40425746347545644	0.8009504808360043
3	0.07317073170731707	0.33230747679682776	0.6055932258445442	0.7856604062207313	0.3229086020954827	0.6026923644079814	1.2023074698304554	0.32031942017831944	0.6312074075664335	1.6249419290563691	0.2853822498048037	0.419482351409471	1.6249772803407383	0.3527059341871685	0.4404965741654791	1.6366797363664336	0.3090494949869837	0.6964795799815723	1.6939296554191963	0.12406312735808142	0.6281684942787028	0.7921650588652573	0.12299809025252237	0.6252847425084767	1.206826851744309	0.1325520906408185	0.6175009196319328	1.58283024536373	0.11113003127582621	0.42229458126155306	1.6249549879609773	0.07022042186139661	0.46841543769095545	1.6424102105785807	0.1482691247676349	0.6799466322632406	1.671857772301008	0.21634538330593542	0.6113501522775164	0.21391744567778773	0.22739134129548197	0.5575900459473984	-0.04610451699926432	0.21496759716446578	0.48229247045290197	0.07921355499690724	0.36385506497424264	0.5753363798321862	0.29528116345351824	0.40629451370921993	0.5588116178188185	0.5674158492330293	0.285306329817825	0.4293013188517076	0.7271100995401517	0.17571043870123915	0.4418694634377135	0.8070526570818244	0.17914548521365234	0.42671669828415937	0.8059309694782653	0.20777982806774398	0.41477527403320064	0.8346608979094702	0.07624764793733216	0.6139856882639594	0.29745260123688333	0.04737518740836808	0.5501885060692905	0.5310136869571522	0.16641422996084793	0.4469698623782937	0.7149985047443227	0.19765447351839116	0.41234087898013255	0.7960296043214813	0.19740087536148085	0.4091212308817372	0.8077085957204232	0.20529555745156047	0.4153373403499309	0.8022416284835753
4	0.0975609756097561	0.3329848093837838	0.6064549194753828	0.7898117414465274	0.32286605032401366	0.6027820727560234	1.2022776180264625	0.3203279711122197	0.6311895221200076	1.6249320205454196	0.29008961603302946	0.43082391996807406	1.6325947145796313	0.3526873578822925	0.44040783779466686	1.6365681546629811	0.30258974834559577	0.6829542322374317	1.690711838910014	0.12469938870676253	0.6291027473953578	0.7966169974479314	0.12300577285335834	0.6252346152372078	1.2067645904498248	0.13253813173082984	0.6173620470457954	1.5827375728245041	0.11015928038164022	0.4226376009800335	1.6292960933201515	0.06907802017415206	0.4687176191268726	1.647301538322663	0.14809451555249303	0.6794979673664051	1.6715808755462616	0.21636408697125584	0.6113454742462848	0.21391364309829003	0.2273944382074637	0.5575560805835634	-0.046110952881621564	0.21494090347703043	0.4822025379820396	0.07918677212108322	0.36385717208292623	0.5753261368993433	0.2953248540359846	0.4106100076106285	0.5693840659380581	0.5706022501257368	0.28483007681755623	0.4293840762503467	0.7307801190011195	0.17231066920859886	0.45475781708819835	0.8121436382434385	0.1759705272524271	0.4399153546384825	0.8110861907854797	0.20793033441457848	0.4151496711275026	0.8349963041254772	0.07629473824502575	0.6141147653032657	0.297511690629665	0.04749566143273195	0.5502412111658727	0.5310826820834558	0.16654239959314043	0.447275867518495	0.7151381203005397	0.19749488758106498	0.4119940413338373	0.796139764303093	0.19798045355372373	0.40917943977288207	0.8117352486894474	0.20524451478665884	0.41533632518565383	0.8023519668980102
5	0.12195121951219512	0.3326109367568143	0.6057134991285188	0.7812346570801211	0.32272801342883844	0.6024093268896091	1.202154076187835	0.3190680748156374	0.6299876906607952	1.6191791905663429	0.2889790446355301	0.42981762662607503	1.6274673537861912	0.3531728237501002	0.44160922816421055	1.6370921383044779	0.30086217923656594	0.6804744738015591	1.68395608589784	0.1151274158405005	0.6126746399604427	0.7825567920156009	0.12811539238418151	0.6272008024851992	1.2031348160655113	0.13260137337485903	0.6174608120715227	1.5826380228477421	0.1110709918703649	0.42248204141585866	1.625138783507265	0.06486429951670493	0.48239153523778466	1.6563956014737606	0.14818249104931924	0.6796760432248521	1.6716345935547055	0.21638309604505337	0.611336689875928	0.2139046364906361	0.2274288510876792	0.5575474995722293	-0.046141882632040526	0.2149372792102224	0.4821835464400678	0.0791786255163623	0.36383095184484077	0.5752059890886826	0.295304014559576	0.41055211512925893	0.569458226339558	0.5706115679606653	0.2847744167777808	0.4296380655320831	0.7307666090662113	0.16886269704941487	0.4680286294236398	0.8176143463653414	0.1774199652487665	0.45580834773320694	0.8172365372690767	0.212104381804772	0.41734357860910953	0.835638789097876	0.0798783003685325	0.6256195010032801	0.29958174759708484	0.04744792760608545	0.550469681378504	0.5311243457156897	0.1630927241570015	0.46112607021630614	0.7201243606147468	0.19762403313252058	0.4136698774623621	0.796680913410727	0.20214181887904417	0.41266171263493107	0.8131652402299054	0.20202832634003035	0.427863848517293	0.810391298501312
